<svg width="100%" viewBox="0 0 680 490" role="img" xmlns="http://www.w3.org/2000/svg" font-family="ui-sans-serif, -apple-system, Segoe UI, Roboto, Helvetica, Arial, sans-serif">
<title>ACP system overview</title>
<desc>A browser and connected data sources feed the FastAPI control plane, which drives three validation engines (HTML, Office, PDF), writes results to Postgres, and exposes observability through Grafana, Langfuse, and an optional local AI service.</desc>
<defs><marker id="ar2" markerWidth="9" markerHeight="9" refX="6" refY="3" orient="auto"><path d="M0,0 L6,3 L0,6 Z" fill="#888780"/></marker></defs>
<rect x="1" y="1" width="678" height="488" rx="14" fill="#FFFFFF" stroke="#E8E8E3"/>

<rect x="120" y="64" width="210" height="44" rx="10" fill="#E6F1FB" stroke="#378ADD" stroke-width="1.5"/>
<text x="225" y="85" text-anchor="middle" font-size="14" font-weight="600" fill="#0C447C">Browser — React SPA</text>
<text x="225" y="100" text-anchor="middle" font-size="12" fill="#185FA5">sign in · scan · review</text>

<rect x="350" y="64" width="210" height="44" rx="10" fill="#F1EFE8" stroke="#888780" stroke-width="1.5"/>
<text x="455" y="85" text-anchor="middle" font-size="14" font-weight="600" fill="#2C2C2A">Data sources</text>
<text x="455" y="100" text-anchor="middle" font-size="12" fill="#5F5E5A">Drive · SharePoint</text>

<line x1="225" y1="108" x2="225" y2="126" stroke="#888780" stroke-width="1.5" marker-end="url(#ar2)"/>
<line x1="455" y1="108" x2="455" y2="126" stroke="#888780" stroke-width="1.5" marker-end="url(#ar2)"/>

<rect x="120" y="128" width="440" height="96" rx="12" fill="#F4F9FE" stroke="#185FA5" stroke-width="1.5"/>
<text x="134" y="148" font-size="12" font-weight="600" fill="#0C447C">Control plane — FastAPI (api/)</text>
<rect x="130" y="158" width="128" height="52" rx="9" fill="#E6F1FB" stroke="#378ADD"/>
<text x="194" y="181" text-anchor="middle" font-size="13" font-weight="600" fill="#0C447C">Access gate</text>
<text x="194" y="197" text-anchor="middle" font-size="11" fill="#185FA5">GIS · passcode</text>
<rect x="276" y="158" width="128" height="52" rx="9" fill="#E6F1FB" stroke="#378ADD"/>
<text x="340" y="181" text-anchor="middle" font-size="13" font-weight="600" fill="#0C447C">Routes</text>
<text x="340" y="197" text-anchor="middle" font-size="11" fill="#185FA5">scans · drive · hitl · ai</text>
<rect x="422" y="158" width="128" height="52" rx="9" fill="#E6F1FB" stroke="#378ADD"/>
<text x="486" y="181" text-anchor="middle" font-size="13" font-weight="600" fill="#0C447C">Core</text>
<text x="486" y="197" text-anchor="middle" font-size="11" fill="#185FA5">state · scheduler</text>

<line x1="340" y1="224" x2="340" y2="238" stroke="#888780" stroke-width="1.5"/>
<line x1="170" y1="238" x2="510" y2="238" stroke="#888780" stroke-width="1.5"/>
<line x1="170" y1="238" x2="170" y2="250" stroke="#888780" stroke-width="1.5" marker-end="url(#ar2)"/>
<line x1="340" y1="238" x2="340" y2="250" stroke="#888780" stroke-width="1.5" marker-end="url(#ar2)"/>
<line x1="510" y1="238" x2="510" y2="250" stroke="#888780" stroke-width="1.5" marker-end="url(#ar2)"/>

<rect x="95" y="252" width="150" height="48" rx="10" fill="#EEEDFE" stroke="#534AB7" stroke-width="1.5"/>
<text x="170" y="274" text-anchor="middle" font-size="14" font-weight="600" fill="#3C3489">HTML engine</text>
<text x="170" y="290" text-anchor="middle" font-size="12" fill="#534AB7">JS · in-repo</text>
<rect x="265" y="252" width="150" height="48" rx="10" fill="#EEEDFE" stroke="#534AB7" stroke-width="1.5"/>
<text x="340" y="274" text-anchor="middle" font-size="14" font-weight="600" fill="#3C3489">Office engine</text>
<text x="340" y="290" text-anchor="middle" font-size="12" fill="#534AB7">.NET · vendored</text>
<rect x="435" y="252" width="150" height="48" rx="10" fill="#EEEDFE" stroke="#534AB7" stroke-width="1.5"/>
<text x="510" y="274" text-anchor="middle" font-size="14" font-weight="600" fill="#3C3489">PDF engine</text>
<text x="510" y="290" text-anchor="middle" font-size="12" fill="#534AB7">Python · vendored</text>

<line x1="170" y1="300" x2="170" y2="312" stroke="#888780" stroke-width="1.5"/>
<line x1="510" y1="300" x2="510" y2="312" stroke="#888780" stroke-width="1.5"/>
<line x1="340" y1="300" x2="340" y2="312" stroke="#888780" stroke-width="1.5"/>
<line x1="170" y1="312" x2="510" y2="312" stroke="#888780" stroke-width="1.5"/>
<line x1="340" y1="312" x2="340" y2="324" stroke="#888780" stroke-width="1.5" marker-end="url(#ar2)"/>

<rect x="200" y="326" width="280" height="48" rx="10" fill="#E1F5EE" stroke="#0F6E56" stroke-width="1.5"/>
<text x="340" y="348" text-anchor="middle" font-size="14" font-weight="600" fill="#085041">Postgres</text>
<text x="340" y="364" text-anchor="middle" font-size="12" fill="#0F6E56">scans · findings · audit log</text>

<line x1="340" y1="374" x2="340" y2="388" stroke="#888780" stroke-width="1.5"/>
<line x1="170" y1="388" x2="340" y2="388" stroke="#888780" stroke-width="1.5"/>
<line x1="170" y1="388" x2="170" y2="400" stroke="#888780" stroke-width="1.5" marker-end="url(#ar2)"/>
<line x1="340" y1="388" x2="340" y2="400" stroke="#888780" stroke-width="1.5" marker-end="url(#ar2)"/>

<rect x="95" y="402" width="150" height="48" rx="10" fill="#E1F5EE" stroke="#0F6E56" stroke-width="1.5"/>
<text x="170" y="424" text-anchor="middle" font-size="14" font-weight="600" fill="#085041">Grafana</text>
<text x="170" y="440" text-anchor="middle" font-size="12" fill="#0F6E56">dashboards</text>
<rect x="265" y="402" width="150" height="48" rx="10" fill="#E1F5EE" stroke="#0F6E56" stroke-width="1.5"/>
<text x="340" y="424" text-anchor="middle" font-size="14" font-weight="600" fill="#085041">Langfuse</text>
<text x="340" y="440" text-anchor="middle" font-size="12" fill="#0F6E56">rule traces</text>
<rect x="435" y="402" width="150" height="48" rx="10" fill="#F1EFE8" stroke="#888780" stroke-width="1.5"/>
<text x="510" y="424" text-anchor="middle" font-size="14" font-weight="600" fill="#2C2C2A">Ollama</text>
<text x="510" y="440" text-anchor="middle" font-size="12" fill="#5F5E5A">local AI · optional</text>
</svg>
